<?xml version="1.0" standalone="no"?><!DOCTYPE svg PUBLIC "-//W3C//DTD SVG 1.1//EN" "http://www.w3.org/Graphics/SVG/1.1/DTD/svg11.dtd"><svg t="1710901842281" class="icon" viewBox="0 0 1024 1024" version="1.1" xmlns="http://www.w3.org/2000/svg" p-id="4279" xmlns:xlink="http://www.w3.org/1999/xlink" width="200" height="200"><path d="M447.12486 359.34248c219.78843 0 398.055165-59.401953 398.055166-153.098038S666.913291 53.146405 447.12486 53.146405 49.069695 112.548358 49.069695 206.244442s151.359382 153.098038 398.055165 153.098038z m0-68.794307c-94.779818 0-183.304756-11.15643-247.864475-32.636421-56.550129-18.80879-77.841471-36.617468-77.841471-51.66731s21.29201-31.515895 77.841471-50.324685c64.620596-21.479991 153.084658-33.979046 247.864475-33.979046 94.773797 0 183.304756 12.499055 247.863138 33.979046 56.551467 18.80879 80.359478 35.275512 80.359478 50.324685s-23.80868 32.85852-80.359478 51.66731c-64.618589 21.479991-153.089341 32.636421-247.863138 32.636421z m0 1.575427" fill="#1296db" p-id="4280"></path><path d="M79.3112 174.741927c14.641769-0.003345 29.740446 10.357679 32.566849 24.682355 0.046159 0.233471-0.55257 0.620805-0.531832 0.85829l1.074367 4.755715c0.016055 0.179284-0.622143 0.472294-0.622143 0.652247v187.176761c-0.238823 37.554697 12.243508 35.727737 84.783384 56.930774 3.880701 1.133906 5.380534 1.822946 9.391684 2.918051 5.841455 1.594827 8.671872 5.482218 8.671872 13.854391 0 13.180737-0.115732 27.494041-0.498384 40.941697l-0.199353 3.388338c-0.398707 3.787714-2.714016 10.474749-15.073256 7.069686-20.333375-4.569072-52.627952-11.52035-76.233933-19.390126-6.429481-2.143383-10.841345-0.301706-10.841345 6.476309v86.770227c0 15.188988 6.262907 9.939572 84.783383 36.645565 2.863196 0.876352 10.388451 2.000223 9.591038 17.549118v35.92709c0 5.429369 0.236816 15.76631-16.127554 12.798754-28.652699-5.195229-34.892861-6.515778-67.376087-16.033898-6.535847-1.915264-10.870779-0.350541-10.87078 6.460253v115.096469c0 15.188988 27.708781 38.582905 84.783383 57.565627 65.158449 21.678676 154.504215 40.600522 250.163061 40.600522 95.652825 0 163.195487-8.964212 226.238649-36.185982 39.825853-17.19657 28.76241-12.511765 44.011605-20.485231 20.507976-10.722937 33.647906-18.796748 39.323456-23.21062 6.029436-4.689487 30.287664-23.676892 35.888289-28.852052 6.992754-6.461591 18.342517-6.460922 30.975367-2.421006 22.077382 7.06032 24.617466 28.409193 22.821947 37.379426-2.644443 13.214185-14.371505 28.079391-33.041149 44.412319l-5.108263 4.500168c-61.473756 53.709009-190.959792 97.2811-361.109901 97.2811-170.30598 0-311.100971-40.500176-372.517196-95.349781-11.719035-10.466052-23.416662-27.474641-24.959309-36.015394-0.056194-0.312409-0.09098-0.823503-0.093656-1.141265l-0.485004-54.038812V205.364076c-0.001338-16.908912 13.707217-30.62215 30.620811-30.622149z m698.154908 30.622149c-0.027428-15.862641 14.886613-29.116965 30.684363-30.551238 15.656598-1.421563 34.340291 9.241835 37.341964 24.624824 0.044152 0.226781 0.094994 0.602743 0.115063 0.832869l0.425466 4.768425c0.016055 0.179284 0.028766 0.473632 0.028766 0.653585v183.253246c-6.700414 23.04137-29.531727 23.704989-31.159334 23.739106-19.137255 0.398707-37.612228-10.266699-37.436288-23.600629V205.364076z m6.090312 0" fill="#1296db" p-id="4281"></path><path d="M266.667914 659.457608l61.000125-8.353441c4.774446 36.68102 21.888733 53.850162 49.067019 52.598517 25.447659-1.172037 39.035129-12.769319 40.628619-33.466614 0.794069-14.390905-5.948491-23.266144-25.103139-31.107154-14.994317-6.138478-34.704211-11.19523-52.669428-14.330029-48.622822-10.409189-74.531402-49.044943-72.936575-89.706341 4.774446-43.909253 37.1105-84.109061 96.882393-87.351563 63.013059-1.59282 105.67468 26.734759 116.023663 77.745139l-61.320562 16.694841c-12.792733-25.075042-25.949387-32.849154-48.992764-32.293908-23.157102 0.558591-32.99499 15.166912-34.58781 31.089091-1.593489 14.330029 14.305946 26.138706 46.666082 34.732308 28.039921 7.446317 51.761635 18.609437 62.1541 25.141939 27.21508 17.106928 35.078166 38.274509 35.876917 66.999457-2.387558 51.01038-36.975368 91.638999-103.980176 90.57199-73.194798-1.166017-95.971255-39.93222-108.708464-98.964232z m417.720907 70.558383l50.258457 50.893979-73.878487 22.69685-45.422465-62.769553c-73.36271-12.002678-117.943609-56.645123-121.129918-133.992894 3.980378-86.958208 48.259571-132.400742 132.769346-136.376437 80.529397 4.775115 127.093126 50.054421 129.213095 136.376437 1.220203 49.669762-16.019181 103.267722-71.810697 123.232495v-0.060877z m9.1348-123.077962c-1.701193-56.562171-32.289225-77.748484-68.907363-77.748484-35.691612 0-67.653042 22.003127-70.171049 77.811368 1.701193 55.744019 33.128115 75.045172 70.171049 75.045172 38.645788 0 67.206169-17.662174 68.907363-75.045172v-0.062884z m281.787328 130.283449h-194.923445V474.079711h67.123217v200.690644h127.800228v62.451123z m0 0" fill="#1296db" p-id="4282"></path></svg>