<?xml version="1.0" standalone="no"?><!DOCTYPE svg PUBLIC "-//W3C//DTD SVG 1.1//EN" "http://www.w3.org/Graphics/SVG/1.1/DTD/svg11.dtd"><svg t="1710901907853" class="icon" viewBox="0 0 1024 1024" version="1.1" xmlns="http://www.w3.org/2000/svg" p-id="6032" xmlns:xlink="http://www.w3.org/1999/xlink" width="200" height="200"><path d="M844.5 359.9H639.9L748.6 109c9.4-21.7-7.6-45.3-32.4-45.3h-315c-14.5 0-27.5 8.4-32.7 21.2L181.9 545.7c-8.7 21.5 8.2 44.6 32.7 44.6h187.8L309 922.1c-9.5 33.6 35.7 56.3 60.1 30.1l501.6-537.7c19.9-21.2 3.9-54.6-26.2-54.6zM414.8 803.5l66.9-237.6c2.8-9.9 0.5-20.4-6.1-28.5-6.6-8.1-16.9-12.8-27.7-12.8H265.3l160-395h238.8L555.4 380.4c-9.4 21.7 7.6 45.3 32.4 45.3h179.4L414.8 803.5z" p-id="6033" fill="#2b9eff"></path></svg>